<?xml version="1.0" encoding="utf-8"?>
<!-- Generator: Adobe Illustrator 24.1.2, SVG Export Plug-In . SVG Version: 6.00 Build 0)  -->
<!DOCTYPE svg PUBLIC "-//W3C//DTD SVG 1.1//EN" "http://www.w3.org/Graphics/SVG/1.1/DTD/svg11.dtd" [
	<!ENTITY st0 "fill:#FF83CF;">
	<!ENTITY st1 "fill:#00CDBE;">
	<!ENTITY st2 "fill:#1B87EB;">
	<!ENTITY st3 "fill:#5ABC03;">
	<!ENTITY st4 "fill:#FF9700;">
	<!ENTITY st5 "fill:#4F4F4F;">
	<!ENTITY st6 "fill:#ABABAB;">
]>
<svg version="1.1" id="レイヤー_1" xmlns="http://www.w3.org/2000/svg" xmlns:xlink="http://www.w3.org/1999/xlink" x="0px"
	 y="0px" viewBox="0 0 186.6 49.5" style="enable-background:new 0 0 186.6 49.5;" xml:space="preserve">
<g id="グループ_3053_3_" transform="translate(0 1)">
	<path id="パス_259_3_" style="fill:#FF83CF;" d="M14.7,36.6c-7.8,0.2-10.3-0.8-11-1.2c-3.5-2-4.8-6.5-2.8-10c2-3.5,6.3-4.7,9.8-2.9
		l8.8,13.9C18.2,36.4,16.5,36.5,14.7,36.6z"/>
	<path id="パス_260_3_" style="fill:#00CDBE;" d="M31.6,22.8c-1.1,4.4-7.3,15.4-7.3,18.2c-0.1,4.1,3.2,7.4,7.2,7.5s7.4-3.2,7.5-7.2
		c0-0.1,0-0.1,0-0.2C38.9,38.2,32.9,27.6,31.6,22.8z"/>
	<path id="パス_261_3_" style="fill:#1B87EB;" d="M22.2,27.1c-1.3-4.4-8.2-15-8.3-17.8c-0.2-4.1,2.9-7.5,7-7.7c4-0.2,7.5,2.9,7.7,6.9
		C28.6,11.3,23.2,22.2,22.2,27.1z"/>
	<path id="パス_262_3_" style="fill:#5ABC03;" d="M48.5,36.6c7.8,0.2,10.3-0.8,11-1.2c3.5-2,4.8-6.5,2.8-10c-2-3.5-6.3-4.7-9.8-2.9
		l-8.8,13.9C44.9,36.4,46.6,36.5,48.5,36.6z"/>
	<path id="パス_263_3_" style="fill:#FF9700;" d="M41,27.1c1.3-4.4,8.2-15,8.3-17.8c0.2-4-2.9-7.5-6.9-7.7c-4-0.2-7.5,2.9-7.7,6.9
		C34.5,11.3,39.9,22.2,41,27.1z"/>
</g>
<g id="グループ_3067_1_" transform="translate(-327.605 -16.003)">
	<g id="グループ_3054_1_" transform="translate(373.605 25.706)">
		<path id="パス_264_1_" style="fill:#4F4F4F;" d="M53.7,33.9h-2L45.9,17l-5.7,16.9h-2L29.4,6.7h5l5,16.2l5.4-16.2H47l5.5,16.2l5-16.2h5
			L53.7,33.9z"/>
		<path id="パス_265_1_" style="fill:#4F4F4F;" d="M64.1,23.7c-0.1-2.7,0.8-5.3,2.6-7.3c3.8-3.7,9.9-3.8,13.8-0.1c3.3,4.4,3.3,10.5,0,14.9
			c-3.9,3.7-10,3.7-13.9,0C64.8,29,63.9,26.4,64.1,23.7z M68.8,23.7c0,4.3,1.6,6.5,4.7,6.5c1.3,0,2.6-0.6,3.4-1.7
			c0.9-1.4,1.4-3.1,1.3-4.8c0-4.3-1.6-6.4-4.7-6.4c-1.3,0-2.6,0.6-3.4,1.7C69.2,20.3,68.7,22,68.8,23.7z"/>
		<path id="パス_266_1_" style="fill:#4F4F4F;" d="M99.8,18.2c-0.8-0.5-1.7-0.8-2.7-0.8c-1.1,0-2.2,0.6-2.8,1.4c-0.8,1-1.3,2.2-1.2,3.5
			v11.2h-4.6V13.9H93v1.8c1.3-1.4,3.2-2.2,5.1-2.2c1.2-0.1,2.5,0.2,3.6,0.7L99.8,18.2z"/>
		<path id="パス_267_1_" style="fill:#4F4F4F;" d="M118.2,33.5l-5.8-8.9l-2.2,2.3v6.6h-4.6V6.6l4.6-1.1v15.9l6.5-7.5h5.5l-6.6,7.4l8,12.2
			L118.2,33.5z"/>
		<path id="パス_268_1_" style="fill:#4F4F4F;" d="M126.8,32.3l1.6-3.6c1.3,1.1,2.9,1.6,4.6,1.6c1.8,0,2.7-0.6,2.7-1.9
			c0-0.7-0.3-1.4-0.8-1.8c-1-0.7-2-1.3-3.1-1.7c-3.4-1.4-5.1-3.4-5.1-5.9c-0.1-1.6,0.7-3.1,1.9-4c1.5-1,3.2-1.5,5-1.4
			c2,0,4,0.5,5.7,1.4l-1.3,3.6c-1.2-0.9-2.7-1.4-4.2-1.3c-1.6,0-2.4,0.6-2.4,1.9c0,0.6,0.3,1.1,0.8,1.4c1.1,0.7,2.2,1.2,3.4,1.6
			c1.4,0.5,2.7,1.3,3.7,2.5c0.8,1,1.2,2.2,1.1,3.5c0.1,1.7-0.7,3.3-2,4.3c-1.6,1.1-3.5,1.7-5.5,1.6c-1.1,0-2.1-0.1-3.1-0.3
			C128.8,33.2,127.8,32.8,126.8,32.3z"/>
	</g>
	<g id="グループ_3055_1_" transform="translate(393.459 16.003)">
		<path id="パス_269_1_" style="fill:#ABABAB;" d="M40.7,9.8l0.6-1.6c0.6,0.4,1.3,0.7,2,0.7c1,0,1.5-0.4,1.5-1.1c0-0.4-0.1-0.7-0.4-1
			c-0.4-0.4-0.9-0.8-1.5-1c-0.5-0.2-1.1-0.6-1.5-0.9C41.2,4.7,41,4.4,40.9,4c-0.1-0.4-0.2-0.7-0.2-1.1c0-0.7,0.3-1.4,0.8-1.9
			c0.6-0.5,1.4-0.8,2.2-0.8c0.9-0.1,1.8,0.2,2.5,0.6l-0.5,1.5c-0.6-0.4-1.2-0.7-1.9-0.7c-0.3,0-0.7,0.1-0.9,0.3
			c-0.2,0.2-0.3,0.5-0.3,0.8c0,0.6,0.6,1.2,1.9,1.8c0.5,0.2,1,0.5,1.4,0.9c0.3,0.3,0.5,0.6,0.7,1c0.2,0.4,0.2,0.8,0.2,1.2
			c0,0.8-0.3,1.5-0.9,2c-0.7,0.6-1.6,0.8-2.5,0.8C42.3,10.5,41.4,10.2,40.7,9.8z"/>
		<path id="パス_270_1_" style="fill:#ABABAB;" d="M52.7,10.3c0-0.1-0.1-0.2-0.1-0.3s0-0.2-0.1-0.3c-0.3,0.2-0.6,0.4-0.9,0.6
			c-0.3,0.1-0.7,0.2-1.1,0.2c-0.6,0-1.1-0.2-1.6-0.5c-0.4-0.4-0.7-0.9-0.7-1.5c0-0.3,0.1-0.6,0.2-0.9c0.2-0.3,0.4-0.5,0.7-0.7
			c0.4-0.2,0.7-0.4,1.1-0.5c0.6-0.2,1.2-0.3,1.7-0.5l0.4-0.1V5.1c0-0.5-0.1-0.7-0.3-0.9C52,4.1,51.7,4,51.4,4
			c-0.3,0-0.7,0.1-0.9,0.3c-0.2,0.2-0.3,0.4-0.3,0.7v0.2h-1.8V5c0-0.4,0.2-0.7,0.4-1c0.1-0.2,0.3-0.3,0.4-0.4
			c0.2-0.1,0.4-0.3,0.7-0.4C50.5,3.1,51,3,51.5,3c0.3,0,0.5,0,0.8,0.1c0.5,0.1,0.9,0.2,1.3,0.5c0.1,0.1,0.3,0.2,0.4,0.3
			c0.1,0.2,0.2,0.4,0.2,0.6c0.1,0.3,0.1,0.6,0.1,0.9v2.7c0,0.2,0,0.3,0,0.5c0,0.2,0,0.3,0,0.5c0,0.2,0,0.4,0.1,0.6
			c0,0.2,0.1,0.4,0.2,0.6L52.7,10.3z M52.5,6.9c-0.2,0.1-0.5,0.1-0.7,0.2c-0.2,0.1-0.4,0.1-0.6,0.2c-0.2,0.1-0.3,0.1-0.5,0.2
			c-0.1,0.1-0.2,0.1-0.3,0.2c-0.3,0.2-0.4,0.6-0.4,0.9c0,0.1,0,0.3,0.1,0.4c0,0.1,0.1,0.2,0.2,0.3c0.1,0.1,0.2,0.2,0.3,0.2
			c0.1,0.1,0.2,0.1,0.3,0.1c0.1,0,0.2,0,0.4-0.1c0.1-0.1,0.3-0.1,0.4-0.2c0.3-0.2,0.5-0.4,0.6-0.7c0.2-0.3,0.2-0.7,0.2-1.1L52.5,6.9
			z"/>
		<path id="パス_271_1_" style="fill:#ABABAB;" d="M60.5,10.3c0-0.1-0.1-0.2-0.1-0.3s0-0.2-0.1-0.3c-0.3,0.2-0.6,0.4-0.9,0.6
			c-0.3,0.1-0.7,0.2-1.1,0.2c-0.6,0-1.1-0.2-1.6-0.5c-0.4-0.4-0.7-0.9-0.7-1.5c0-0.3,0.1-0.6,0.2-0.9c0.2-0.3,0.4-0.5,0.7-0.7
			c0.4-0.2,0.7-0.4,1.1-0.5c0.6-0.2,1.2-0.3,1.7-0.5l0.4-0.1V5.1c0-0.5-0.1-0.7-0.3-0.9C59.8,4.1,59.5,4,59.2,4
			c-0.3,0-0.7,0.1-0.9,0.3C58.1,4.5,58,4.7,58,5v0.2h-1.8V5c0-0.4,0.2-0.7,0.4-1c0.1-0.2,0.3-0.3,0.4-0.4c0.2-0.1,0.4-0.3,0.7-0.4
			c0.5-0.2,1-0.3,1.5-0.3c0.3,0,0.5,0,0.8,0.1c0.5,0.1,0.9,0.2,1.3,0.5c0.1,0.1,0.3,0.2,0.4,0.3c0.1,0.2,0.2,0.4,0.2,0.6
			C61.9,4.8,62,5.1,62,5.4v2.7c0,0.2,0,0.3,0,0.5c0,0.2,0,0.3,0,0.5c0,0.2,0,0.4,0.1,0.6c0,0.2,0.1,0.4,0.2,0.6L60.5,10.3z
			 M60.3,6.9c-0.2,0.1-0.5,0.1-0.7,0.2c-0.2,0.1-0.4,0.1-0.6,0.2c-0.2,0.1-0.3,0.1-0.5,0.2c-0.1,0.1-0.2,0.1-0.3,0.2
			c-0.3,0.2-0.4,0.6-0.4,0.9c0,0.1,0,0.3,0.1,0.4c0,0.1,0.1,0.2,0.2,0.3c0.1,0.1,0.2,0.2,0.3,0.2c0.1,0.1,0.2,0.1,0.3,0.1
			c0.1,0,0.2,0,0.4-0.1c0.1-0.1,0.3-0.1,0.4-0.2c0.3-0.2,0.5-0.4,0.6-0.7c0.2-0.3,0.2-0.7,0.2-1.1L60.3,6.9z"/>
		<path id="パス_272_1_" style="fill:#ABABAB;" d="M64,9.9l0.6-1.3c0.5,0.4,1.1,0.6,1.7,0.6c0.7,0,1-0.2,1-0.7c0-0.3-0.1-0.5-0.3-0.7
			c-0.4-0.3-0.7-0.5-1.2-0.6c-1.2-0.5-1.9-1.2-1.9-2.2c0-0.6,0.2-1.1,0.7-1.5c0.5-0.4,1.2-0.5,1.8-0.5c0.7,0,1.5,0.2,2.1,0.5
			l-0.5,1.3c-0.4-0.3-1-0.5-1.5-0.5c-0.6,0-0.9,0.2-0.9,0.7c0,0.2,0.1,0.4,0.3,0.5c0.4,0.2,0.8,0.4,1.2,0.6c0.5,0.2,1,0.5,1.4,0.9
			C68.9,7.4,69,7.8,69,8.3c0,0.6-0.3,1.2-0.7,1.6c-0.6,0.4-1.3,0.6-2,0.6c-0.4,0-0.8,0-1.2-0.1C64.7,10.2,64.3,10.1,64,9.9z"/>
		<path id="パス_273_1_" style="fill:#ABABAB;" d="M75.5,10.3l-2.1-3.3l-0.8,0.9v2.4h-1.7V0.4L72.6,0v5.9L75,3.1h2l-2.4,2.7l2.9,4.5H75.5z
			"/>
		<path id="パス_274_1_" style="fill:#ABABAB;" d="M85.5,7.2h-5.2c0,0.5,0.2,1,0.6,1.3c0.4,0.3,0.9,0.5,1.5,0.5c0.6,0,1.3-0.2,1.8-0.6
			l0.7,1.3c-0.8,0.5-1.7,0.8-2.7,0.7c-1,0.1-1.9-0.3-2.6-1c-0.7-0.7-1-1.7-1-2.7c0-1,0.3-2,1.1-2.8c1.4-1.4,3.6-1.4,5.1-0.1
			c0.6,0.6,1,1.5,1,2.4C85.6,6.6,85.6,6.9,85.5,7.2z M80.4,6h3.5c0-0.9-0.7-1.6-1.6-1.6c-0.1,0-0.1,0-0.2,0C81.3,4.3,80.5,5,80.4,6z
			"/>
	</g>
</g>
</svg>
